<?xml version="1.0" encoding="utf-8"?>
<!-- Generator: Adobe Illustrator 16.0.0, SVG Export Plug-In . SVG Version: 6.00 Build 0)  -->
<!DOCTYPE svg PUBLIC "-//W3C//DTD SVG 1.1//EN" "http://www.w3.org/Graphics/SVG/1.1/DTD/svg11.dtd">
<svg version="1.1" id="Layer_1" xmlns="http://www.w3.org/2000/svg" xmlns:xlink="http://www.w3.org/1999/xlink" x="0px" y="0px"
	 width="724px" height="201.18px" viewBox="0 0 724 201.18" enable-background="new 0 0 724 201.18" xml:space="preserve">
<g>
	<path fill-rule="evenodd" clip-rule="evenodd" d="M437.686,4.87V3.144h0.795v-4.918l0.346-1.885l0.898-3.16l0.896,3.16l0.346,1.885
		v4.918h0.795V4.87l8.738,26.826c-0.477,0.893-0.834,2.152-0.926,3.332h-19.723c-0.061-0.73-0.236-2.04-0.914-3.312L437.686,4.87
		L437.686,4.87L437.686,4.87z"/>
	<polygon fill-rule="evenodd" clip-rule="evenodd" stroke="#000000" stroke-width="0.2835" stroke-miterlimit="2.6131" points="
		303.513,64.581 298.917,64.581 298.35,60.437 298.35,59.677 304.08,59.677 304.08,60.437 303.513,64.581 	"/>
	<path fill-rule="evenodd" clip-rule="evenodd" stroke="#FFFFFF" stroke-width="0.216" stroke-miterlimit="2.6131" d="
		M318.363,72.911c-0.452-0.47-0.98-0.86-1.562-1.155h0c-2.535-1.232-5.496-1.232-8.031,0l0,0c-0.581,0.295-1.109,0.686-1.562,1.155
		v0c-0.658,0.661-1.04,1.547-1.067,2.479l0,0v24.416h13.288V75.39h0C319.402,74.458,319.021,73.571,318.363,72.911L318.363,72.911
		L318.363,72.911z"/>
	<polygon fill-rule="evenodd" clip-rule="evenodd" stroke="#000000" stroke-width="0.2835" stroke-miterlimit="2.6131" points="
		326.663,64.581 322.066,64.581 321.499,60.437 321.499,59.677 327.229,59.677 327.229,60.437 326.663,64.581 	"/>
	<path fill-rule="evenodd" clip-rule="evenodd" stroke="#FFFFFF" stroke-width="0.216" stroke-miterlimit="2.6131" d="
		M341.512,72.911c-0.453-0.47-0.98-0.86-1.562-1.155l0,0c-2.535-1.232-5.496-1.232-8.031,0l0,0
		c-0.582,0.295-1.109,0.686-1.562,1.155v0c-0.658,0.661-1.04,1.547-1.067,2.479l0,0v24.416h13.288V75.39l0,0
		C342.551,74.458,342.17,73.571,341.512,72.911L341.512,72.911L341.512,72.911z"/>
	<path fill-rule="evenodd" clip-rule="evenodd" stroke="#FFFFFF" stroke-width="0.216" stroke-miterlimit="2.6131" d="
		M364.66,72.911c-0.451-0.47-0.98-0.86-1.561-1.155l0,0c-2.535-1.232-5.496-1.232-8.031,0h0c-0.582,0.295-1.109,0.686-1.562,1.155v0
		c-0.658,0.661-1.04,1.547-1.067,2.479l0,0v24.416h13.287V75.39l0,0C365.701,74.458,365.318,73.571,364.66,72.911L364.66,72.911
		L364.66,72.911z"/>
	<polygon fill-rule="evenodd" clip-rule="evenodd" stroke="#000000" stroke-width="0.2835" stroke-miterlimit="2.6131" points="
		349.812,64.581 345.215,64.581 344.648,60.437 344.648,59.677 350.378,59.677 350.378,60.437 349.812,64.581 	"/>
	<path fill-rule="evenodd" clip-rule="evenodd" stroke="#FFFFFF" stroke-width="0.216" stroke-miterlimit="2.6131" d="
		M387.811,72.911c-0.453-0.47-0.98-0.86-1.563-1.155l0,0c-2.535-1.232-5.496-1.232-8.031,0l0,0c-0.58,0.295-1.109,0.686-1.561,1.155
		v0c-0.658,0.661-1.039,1.547-1.066,2.479h-0.002v24.416h13.289V75.39l0,0C388.85,74.458,388.469,73.571,387.811,72.911
		L387.811,72.911L387.811,72.911z"/>
	<polygon fill-rule="evenodd" clip-rule="evenodd" stroke="#000000" stroke-width="0.2835" stroke-miterlimit="2.6131" points="
		372.961,64.581 368.363,64.581 367.797,60.437 367.797,59.677 373.527,59.677 373.527,60.437 372.961,64.581 	"/>
	<path fill-rule="evenodd" clip-rule="evenodd" stroke="#FFFFFF" stroke-width="0.216" stroke-miterlimit="2.6131" d="
		M410.959,72.911c-0.453-0.47-0.98-0.86-1.561-1.155l0,0c-2.535-1.232-5.496-1.232-8.031,0l0,0
		c-0.582,0.295-1.109,0.686-1.563,1.155v0c-0.658,0.661-1.039,1.547-1.066,2.479l0,0v24.416h13.287V75.39l0,0
		C411.998,74.458,411.617,73.571,410.959,72.911L410.959,72.911L410.959,72.911z"/>
	<polygon fill-rule="evenodd" clip-rule="evenodd" stroke="#000000" stroke-width="0.2835" stroke-miterlimit="2.6131" points="
		396.109,64.581 391.514,64.581 390.945,60.437 390.945,59.677 396.676,59.677 396.676,60.437 396.109,64.581 	"/>
	<polygon fill-rule="evenodd" clip-rule="evenodd" stroke="#000000" stroke-width="0.2835" stroke-miterlimit="2.6131" points="
		419.258,64.581 414.662,64.581 414.096,60.437 414.096,59.677 419.826,59.677 419.826,60.437 419.258,64.581 	"/>
	<polygon fill-rule="evenodd" clip-rule="evenodd" stroke="#000000" stroke-width="0.2835" stroke-miterlimit="2.6131" points="
		409.266,119.974 409.266,126.378 401.943,126.378 401.943,119.974 409.266,119.974 	"/>
	<polygon fill-rule="evenodd" clip-rule="evenodd" stroke="#000000" stroke-width="0.2835" stroke-miterlimit="2.6131" points="
		410.422,109.851 410.422,114.167 400.787,114.167 400.787,109.851 410.422,109.851 	"/>
	<path fill-rule="evenodd" clip-rule="evenodd" d="M342.471,118.315v-0.516v-1.746l0,0.002c0.004-3.607-2.922-6.536-6.53-6.534
		c-3.608-0.004-6.536,2.923-6.534,6.531v0.001v1.738v0.523v8.581l0.078,0.107l-0.009,4.382h12.927V127l0.069-0.069V118.315
		L342.471,118.315z"/>
	<path fill-rule="evenodd" clip-rule="evenodd" d="M365.619,118.695v-0.516v-1.746l0,0c0.004-3.607-2.924-6.535-6.531-6.532
		c-3.608-0.003-6.536,2.925-6.533,6.532l0,0v1.738v0.523v8.201l0.078,0.107l-0.008,4.382h12.926V127l0.068-0.069V118.695
		L365.619,118.695z"/>
	<path fill-rule="evenodd" clip-rule="evenodd" d="M388.77,118.568v-0.515v-1.747v0.003c0.004-3.608-2.924-6.537-6.531-6.535
		c-3.607-0.004-6.535,2.924-6.533,6.531l-0.002,0.001v1.738v0.523v8.328l0.078,0.107l-0.008,4.382h12.926V127l0.07-0.069V118.568
		L388.77,118.568z"/>
	<path fill-rule="evenodd" clip-rule="evenodd" d="M410.047,41.555c0-5.541-9.324-5.428-9.324,0h-13.824c0-5.32-9.324-5.29-9.324,0
		H363.75c0-5.292-9.325-5.374-9.325-0.027l-13.824,0.027c0-5.263-9.324-5.291-9.324,0h-13.825c0-5.223-9.324-5.303-9.324-0.027
		l-13.631-0.011l0.005-4.761h3.239l22.053-25.426l2.364-3.181l0.027-0.028l-0.017,0.027l-0.217-0.047l0.186,0.015h-0.199V2.621v0
		c-0.006-0.541,0.114-1.075,0.35-1.562l0,0c0.209-0.487,0.622-0.857,1.129-1.012v0l0,0l0.273-0.041l0.274,0.041l0,0v0
		c0.507,0.155,0.919,0.525,1.129,1.012l0,0c0.236,0.487,0.356,1.022,0.35,1.563V2.621v4.701h33.645h33.645V2.621v0
		c-0.006-0.541,0.113-1.075,0.35-1.562l0,0c0.209-0.487,0.623-0.857,1.129-1.012v0l0,0L394.484,0l0.273,0.046l0,0v0
		c0.508,0.155,0.92,0.525,1.129,1.012l0,0c0.236,0.487,0.357,1.022,0.352,1.563V2.621v5.495h-0.199l-0.004,0.04v0.019l0.01-0.054
		l-0.027,0l2.445,3.181l21.971,25.454h3.285l-0.023,4.799H410.047L410.047,41.555z"/>
	<polygon fill-rule="evenodd" clip-rule="evenodd" stroke="#000000" stroke-width="0.2835" stroke-miterlimit="2.6131" points="
		316.231,120.171 316.231,126.378 308.91,126.378 308.91,120.171 316.231,120.171 	"/>
	<polygon fill-rule="evenodd" clip-rule="evenodd" stroke="#000000" stroke-width="0.2835" stroke-miterlimit="2.6131" points="
		317.388,109.851 317.388,114.167 307.753,114.167 307.753,109.851 317.388,109.851 	"/>
	<path fill-rule="evenodd" clip-rule="evenodd" d="M280.489,4.87V3.144h-0.794v-4.918L279.35-3.66l-0.898-3.16l-0.897,3.16
		l-0.346,1.885v4.918h-0.794V4.87l-8.754,26.865c0.681,1.295,0.791,2.106,0.944,3.293h19.728c0.103-1.265,0.507-2.483,0.918-3.262
		L280.489,4.87L280.489,4.87L280.489,4.87z"/>
	<path fill-rule="evenodd" clip-rule="evenodd" d="M272.376,71.504c-1.142-2.126-3.735-1.665-4.351,0v0v8.858h4.351L272.376,71.504
		L272.376,71.504L272.376,71.504z"/>
	<path fill-rule="evenodd" clip-rule="evenodd" d="M433.736,71.504c-1.141-2.126-3.734-1.665-4.35,0v0v8.858h4.35V71.504
		L433.736,71.504L433.736,71.504z"/>
	<path fill-rule="evenodd" clip-rule="evenodd" d="M280.626,71.504c-0.813-2.06-3.866-2.06-4.351,0v0v8.858h4.351L280.626,71.504
		L280.626,71.504L280.626,71.504z"/>
	<path fill-rule="evenodd" clip-rule="evenodd" d="M441.988,71.504c-0.814-2.06-3.867-2.06-4.352,0v0v8.858h4.352V71.504
		L441.988,71.504L441.988,71.504z"/>
	<path fill-rule="evenodd" clip-rule="evenodd" d="M288.327,71.504c-0.748-1.797-3.341-2.06-4.351,0l0,0v8.858h4.352V71.504
		L288.327,71.504L288.327,71.504z"/>
	<path fill-rule="evenodd" clip-rule="evenodd" d="M449.688,71.504c-0.748-1.797-3.34-2.06-4.352,0v0v8.858h4.352V71.504
		L449.688,71.504L449.688,71.504z"/>
	<polygon fill-rule="evenodd" clip-rule="evenodd" points="268.025,88.38 268.025,97.986 272.376,97.986 272.376,88.38 
		268.025,88.38 	"/>
	<polygon fill-rule="evenodd" clip-rule="evenodd" points="429.387,88.38 429.387,97.986 433.736,97.986 433.736,88.38 
		429.387,88.38 	"/>
	<polygon fill-rule="evenodd" clip-rule="evenodd" points="276.276,88.38 276.276,97.986 280.627,97.986 280.627,88.38 
		276.276,88.38 	"/>
	<polygon fill-rule="evenodd" clip-rule="evenodd" points="437.637,88.38 437.637,97.986 441.988,97.986 441.988,88.38 
		437.637,88.38 	"/>
	<polygon fill-rule="evenodd" clip-rule="evenodd" points="283.975,88.38 283.975,97.986 288.327,97.986 288.327,88.38 
		283.975,88.38 	"/>
	<polygon fill-rule="evenodd" clip-rule="evenodd" points="445.336,88.38 445.336,97.986 449.688,97.986 449.688,88.38 
		445.336,88.38 	"/>
	<polygon fill-rule="evenodd" clip-rule="evenodd" points="268.042,109.629 268.042,119.567 272.394,119.567 272.394,109.629 
		268.042,109.629 	"/>
	<polygon fill-rule="evenodd" clip-rule="evenodd" points="429.402,109.629 429.402,119.567 433.754,119.567 433.754,109.629 
		429.402,109.629 	"/>
	<polygon fill-rule="evenodd" clip-rule="evenodd" points="276.276,109.629 276.276,119.567 280.627,119.567 280.627,109.629 
		276.276,109.629 	"/>
	<polygon fill-rule="evenodd" clip-rule="evenodd" points="437.637,109.629 437.637,119.567 441.988,119.567 441.988,109.629 
		437.637,109.629 	"/>
	<polygon fill-rule="evenodd" clip-rule="evenodd" points="284.113,109.629 284.113,119.567 288.464,119.567 288.464,109.629 
		284.113,109.629 	"/>
	<polygon fill-rule="evenodd" clip-rule="evenodd" points="445.475,109.629 445.475,119.567 449.826,119.567 449.826,109.629 
		445.475,109.629 	"/>
	<polygon fill-rule="evenodd" clip-rule="evenodd" points="267.991,128.377 267.991,132.209 272.411,132.209 272.411,128.377 
		267.991,128.377 	"/>
	<polygon fill-rule="evenodd" clip-rule="evenodd" points="429.352,128.377 429.352,132.209 433.771,132.209 433.771,128.377 
		429.352,128.377 	"/>
	<polygon fill-rule="evenodd" clip-rule="evenodd" points="276.241,128.377 276.241,132.209 280.662,132.209 280.662,128.377 
		276.241,128.377 	"/>
	<polygon fill-rule="evenodd" clip-rule="evenodd" points="437.602,128.377 437.602,132.209 442.021,132.209 442.021,128.377 
		437.602,128.377 	"/>
	<polygon fill-rule="evenodd" clip-rule="evenodd" points="284.096,128.377 284.096,132.209 288.517,132.209 288.517,128.377 
		284.096,128.377 	"/>
	<polygon fill-rule="evenodd" clip-rule="evenodd" points="445.457,128.377 445.457,132.209 449.877,132.209 449.877,128.377 
		445.457,128.377 	"/>
	<polygon fill-rule="evenodd" clip-rule="evenodd" stroke="#000000" stroke-width="0.2835" stroke-miterlimit="2.6131" points="
		68.657,132.328 63.032,132.328 63.032,128.774 68.657,128.774 68.657,132.328 	"/>
	<polygon fill-rule="evenodd" clip-rule="evenodd" stroke="#000000" stroke-width="0.2835" stroke-miterlimit="2.6131" points="
		692.594,132.328 686.967,132.328 686.967,128.774 692.594,128.774 692.594,132.328 	"/>
	<polygon fill-rule="evenodd" clip-rule="evenodd" stroke="#000000" stroke-width="0.2835" stroke-miterlimit="2.6131" points="
		50.301,132.328 44.675,132.328 44.675,128.774 50.301,128.774 50.301,132.328 	"/>
	<polygon fill-rule="evenodd" clip-rule="evenodd" stroke="#000000" stroke-width="0.2835" stroke-miterlimit="2.6131" points="
		674.236,132.328 668.611,132.328 668.611,128.774 674.236,128.774 674.236,132.328 	"/>
	<polygon fill-rule="evenodd" clip-rule="evenodd" stroke="#000000" stroke-width="0.2835" stroke-miterlimit="2.6131" points="
		31.352,132.328 25.726,132.328 25.726,128.774 31.352,128.774 31.352,132.328 	"/>
	<polygon fill-rule="evenodd" clip-rule="evenodd" stroke="#000000" stroke-width="0.2835" stroke-miterlimit="2.6131" points="
		655.287,132.328 649.662,132.328 649.662,128.774 655.287,128.774 655.287,132.328 	"/>
	<path fill-rule="evenodd" clip-rule="evenodd" d="M77.739,51.837l0.007-7.588l-0.775-0.328l0.003-3.975
		c0.013-0.586-0.243-2.776-1.698-3.189l187.162,0l0.018,11.412l-3.871,0.863l-0.006,2.806h-5.922v0
		c-0.355,0-0.667-0.234-0.767-0.574l0,0.001c-0.933-1.454-3.06-1.453-3.991,0.001h0c-0.101,0.339-0.413,0.572-0.767,0.572l0,0
		h-8.479v0c-0.354,0-0.667-0.234-0.767-0.574v0.001c-0.933-1.454-3.06-1.453-3.991,0.001h-0.001
		c-0.101,0.339-0.412,0.572-0.766,0.572l0,0h-9.546v0c-0.354,0-0.667-0.234-0.767-0.574l0,0.001
		c-0.933-1.454-3.06-1.453-3.991,0.001h-0.001c-0.101,0.339-0.413,0.572-0.767,0.572l0,0h-9.225v0c-0.355,0-0.667-0.234-0.767-0.574
		l-0.001,0.001c-0.933-1.454-3.06-1.453-3.991,0.001h-0.001c-0.101,0.339-0.412,0.572-0.766,0.572l0,0h-9.065v0
		c-0.355,0-0.667-0.234-0.767-0.574l0,0.001c-0.933-1.454-3.06-1.453-3.991,0.001h-0.001c-0.101,0.339-0.413,0.572-0.767,0.572l0,0
		l-9.065,0.026l0,0c-0.354,0-0.666-0.234-0.767-0.574v0c-0.933-1.454-3.06-1.453-3.991,0.001h0
		c-0.101,0.339-0.413,0.543-0.766,0.543v0l-9.611,0.003v0c-0.355,0-0.667-0.234-0.768-0.574v0.001
		c-0.933-1.454-3.06-1.453-3.991,0.001h0c-0.101,0.339-0.413,0.572-0.767,0.572l0,0h-9.18v0c-0.354,0-0.667-0.234-0.767-0.574v0.001
		c-0.933-1.454-3.06-1.453-3.991,0.001h-0.001c-0.101,0.339-0.412,0.572-0.766,0.572v0h-9.611v0c-0.355,0-0.667-0.234-0.767-0.574
		l0,0.001c-0.934-1.454-3.06-1.453-3.991,0.001h-0.001c-0.101,0.339-0.412,0.572-0.766,0.572l0,0h-9.324v0
		c-0.354,0-0.667-0.234-0.767-0.574l0,0.001c-0.933-1.454-3.06-1.453-3.991,0.001h-0.001c-0.101,0.339-0.412,0.572-0.766,0.572l0,0
		h-8.891l0,0c-0.354,0-0.667-0.234-0.767-0.574l0,0.001c-0.933-1.454-3.06-1.453-3.991,0.001h0
		c-0.101,0.339-0.413,0.572-0.766,0.572v0h-9.035v0c-0.354,0-0.667-0.234-0.767-0.574l0,0.001c-0.933-1.454-3.06-1.453-3.991,0.001
		h0c-0.101,0.339-0.413,0.572-0.766,0.572v0H77.739L77.739,51.837z"/>
	<path fill-rule="evenodd" clip-rule="evenodd" d="M640.447,51.837l-0.008-7.588l0.775-0.328l-0.004-3.975
		c-0.025-0.719,0.311-2.802,1.697-3.189l-187.162,0l-0.016,11.412l3.869,0.863l-0.006,2.806h5.934v0
		c0.355,0,0.666-0.234,0.768-0.574v0.001c0.934-1.454,3.061-1.453,3.992,0.001l0,0c0.102,0.339,0.412,0.572,0.766,0.572v0h8.48v0
		c0.354,0,0.666-0.234,0.766-0.574v0.001c0.934-1.454,3.061-1.453,3.992,0.001l0,0c0.102,0.339,0.414,0.572,0.768,0.572l-0.002,0
		h9.547v0c0.355,0,0.666-0.234,0.768-0.574v0.001c0.934-1.454,3.061-1.453,3.992,0.001l0,0c0.102,0.339,0.412,0.572,0.766,0.572v0
		h9.225v0c0.355,0,0.668-0.234,0.768-0.574l0.002,0.001c0.932-1.454,3.059-1.453,3.99,0.001l0,0
		c0.102,0.339,0.412,0.572,0.768,0.572l-0.002,0h9.066v0c0.355,0,0.666-0.234,0.768-0.574v0.001c0.932-1.454,3.059-1.453,3.99,0.001
		h0.002c0.1,0.339,0.412,0.572,0.766,0.572v0l9.064,0.026v0c0.355,0,0.668-0.234,0.768-0.574v0c0.934-1.454,3.061-1.453,3.992,0.001
		l0,0c0.102,0.339,0.412,0.543,0.766,0.543v0l9.611,0.003v0c0.355,0,0.668-0.234,0.768-0.574v0.001
		c0.934-1.454,3.061-1.453,3.992,0.001l0,0c0.102,0.339,0.412,0.572,0.766,0.572v0h9.18v0c0.355,0,0.666-0.234,0.768-0.574v0.001
		c0.934-1.454,3.061-1.453,3.99,0.001h0.002c0.1,0.339,0.412,0.572,0.766,0.572v0h9.611v0c0.355,0,0.666-0.234,0.768-0.574v0.001
		c0.934-1.454,3.061-1.453,3.99,0.001h0.002c0.1,0.339,0.412,0.572,0.766,0.572v0h9.324v0c0.354,0,0.666-0.234,0.766-0.574
		l0.002,0.001c0.932-1.454,3.059-1.453,3.99,0.001l0,0c0.102,0.339,0.412,0.572,0.768,0.572l-0.002,0h8.893v0
		c0.354,0,0.666-0.234,0.768-0.574v0.001c0.934-1.454,3.059-1.453,3.99,0.001h0.002c0.1,0.339,0.412,0.572,0.766,0.572v0h9.035v0
		c0.354,0,0.666-0.234,0.768-0.574v0.001c0.934-1.454,3.059-1.453,3.99,0.001h0.002c0.1,0.339,0.412,0.572,0.766,0.572v0H640.447
		L640.447,51.837z"/>
	
		<path fill="none" stroke="#000000" stroke-width="1.9842" stroke-linecap="round" stroke-linejoin="round" stroke-miterlimit="2.6131" d="
		M359.088,52.701h63.869 M439.725,103.949h-80.637 M359.088,59.677h64.043 M153.318,124.618h-15.713 M137.605,65.099h15.713
		 M16.754,65.099h30.287 M47.041,56.292H22.342 M47.041,124.618H16.513"/>
	
		<path fill="none" stroke="#000000" stroke-width="1.9351" stroke-linecap="round" stroke-linejoin="round" stroke-miterlimit="2.6131" d="
		M78.846,135.806v-10.257 M58.868,124.618V65.099"/>
	
		<line fill="none" stroke="#000000" stroke-width="3.0534" stroke-miterlimit="2.6131" x1="78.116" y1="124.618" x2="78.116" y2="106.598"/>
	
		<line fill="none" stroke="#000000" stroke-width="3.0926" stroke-miterlimit="2.6131" x1="77.857" y1="103.917" x2="77.857" y2="60.457"/>
	
		<path fill="none" stroke="#000000" stroke-width="1.9351" stroke-linecap="round" stroke-linejoin="round" stroke-miterlimit="2.6131" d="
		M72.164,124.618V65.099 M53.688,124.618V65.099 M47.041,124.618h30.804 M47.041,56.292h24.695 M77.413,65.099H47.041
		 M77.344,65.099h13.123 M90.467,124.618H74.754 M90.467,124.618H77.845 M77.344,65.099v2.862 M121.893,124.618H106.18
		 M106.18,65.099h15.713 M106.18,124.618H90.467 M90.467,65.099h15.713 M137.605,124.618h-15.713 M121.893,65.099h15.713"/>
	
		<path fill="none" stroke="#000000" stroke-width="1.9842" stroke-linecap="round" stroke-linejoin="round" stroke-miterlimit="2.6131" d="
		M247.595,65.099h14.262 M260.868,124.618h-13.272 M200.457,124.618h-15.713 M184.744,65.099h15.713 M169.031,124.618h-15.713
		 M153.318,65.099h15.713 M184.744,124.618h-15.713 M169.031,65.099h15.713 M231.883,124.618H216.17 M216.17,65.099h15.713
		 M216.17,124.618h-15.713 M200.457,65.099h15.713 M247.595,124.618h-15.712 M231.883,65.099h15.712 M359.088,52.701h-63.87
		 M14.82,103.949h344.268 M304.08,59.694v-0.018 M359.088,59.677h-64.043"/>
	
		<path fill="none" stroke="#000000" stroke-width="1.9351" stroke-linecap="round" stroke-linejoin="round" stroke-miterlimit="2.6131" d="
		M295.442,123.892h-34.05 M278.451,64.753h-16.524 M261.754,52.701h16.697"/>
	
		<line fill="none" stroke="#000000" stroke-width="1.9842" stroke-linecap="round" stroke-linejoin="round" stroke-miterlimit="2.6131" x1="262.478" y1="48.168" x2="294.803" y2="48.168"/>
	
		<path fill="none" stroke="#000000" stroke-width="1.9351" stroke-linecap="round" stroke-linejoin="round" stroke-miterlimit="2.6131" d="
		M278.451,57.173h-16.569 M278.451,64.753h16.567 M295.148,52.701h-16.697 M278.451,57.173h16.561 M264.207,57.173h0.656
		 M264.207,57.173h0.656 M298.35,59.693v-0.016 M329.475,131.378v0.007 M320.911,135.806v-4.421 M397.266,131.385h-76.355
		 M439.725,123.892h-17.061 M439.725,123.892h17.059 M439.725,103.949h18.648 M439.725,64.753h16.605"/>
	
		<line fill="none" stroke="#000000" stroke-width="1.9351" stroke-linecap="round" stroke-linejoin="round" stroke-miterlimit="2.6131" x1="456.25" y1="52.701" x2="439.725" y2="52.701"/>
	
		<line fill="none" stroke="#000000" stroke-width="1.9351" stroke-linecap="round" stroke-linejoin="round" stroke-miterlimit="2.6131" x1="456.076" y1="48.168" x2="423.371" y2="48.168"/>
	
		<line fill="none" stroke="#000000" stroke-width="1.9351" stroke-linecap="round" stroke-linejoin="round" stroke-miterlimit="2.6131" x1="423.131" y1="57.173" x2="456.314" y2="57.173"/>
	
		<path fill="none" stroke="#000000" stroke-width="1.9351" stroke-linecap="round" stroke-linejoin="round" stroke-miterlimit="2.6131" d="
		M397.266,133.458v-2.073 M397.266,135.806v-3.902 M439.725,64.753h-16.525 M423.027,52.701h16.697"/>
	<polygon fill-rule="evenodd" clip-rule="evenodd" points="8,135.806 8,139.059 710.176,139.059 710.176,135.806 8,135.806 	"/>
	
		<path fill="none" stroke="#000000" stroke-width="1.9351" stroke-linecap="round" stroke-linejoin="round" stroke-miterlimit="2.6131" d="
		M65.542,46.968v9.324 M47.041,46.968v9.324 M28.54,46.968v9.324 M35.213,124.618V65.099 M40.393,124.618V65.099 M21.917,124.618
		V65.099 M703.355,103.949H359.088 M580.57,65.099h-15.713 M564.857,124.618h15.713 M671.135,124.618h30.574 M671.135,56.292h30.994
		 M701.508,65.099h-30.373 M696.258,124.618V65.099 M671.135,124.618H640.33 M682.963,124.618V65.099 M677.783,124.618V65.099
		 M664.486,124.618V65.099 M659.307,124.618V65.099 M646.012,124.618V65.099 M627.709,124.618h12.621 M627.709,124.618h15.713
		 M640.832,65.099h-13.123 M640.762,65.099h30.373 M671.135,56.292h-24.68"/>
	
		<line fill="none" stroke="#000000" stroke-width="3.0307" stroke-linecap="round" stroke-miterlimit="2.6131" x1="640.193" y1="103.821" x2="640.193" y2="60.451"/>
	
		<line fill="none" stroke="#000000" stroke-width="3.0613" stroke-linecap="round" stroke-miterlimit="2.6131" x1="639.934" y1="124.616" x2="639.934" y2="106.611"/>
	
		<path fill="none" stroke="#000000" stroke-width="1.9351" stroke-linecap="round" stroke-linejoin="round" stroke-miterlimit="2.6131" d="
		M596.283,124.618h15.713 M611.996,124.618h15.713 M580.57,124.618h15.713 M611.996,65.099h-15.713 M627.709,65.099h-15.713
		 M457.287,124.618h13.293 M470.58,65.099h-14.221 M533.432,65.099h-15.713 M517.719,124.618h15.713 M549.145,124.618h15.713
		 M533.432,124.618h15.713"/>
	
		<line fill="none" stroke="#000000" stroke-width="1.9351" stroke-linecap="round" stroke-linejoin="round" stroke-miterlimit="2.6131" x1="597.066" y1="65.099" x2="533.432" y2="65.099"/>
	
		<path fill="none" stroke="#000000" stroke-width="1.9351" stroke-linecap="round" stroke-linejoin="round" stroke-miterlimit="2.6131" d="
		M486.293,124.618h15.713 M502.006,124.618h15.713 M470.58,124.618h15.713 M502.006,65.099h-31.58 M517.719,65.099h-15.713"/>
	
		<path fill="none" stroke="#000000" stroke-width="1.1495" stroke-linecap="round" stroke-linejoin="round" stroke-miterlimit="2.6131" d="
		M398.252,41.555v6.621 M412.52,41.555v6.621 M375.104,41.555v6.621 M389.371,41.555v6.621 M351.954,41.555v6.621 M366.221,41.555
		v6.621 M328.805,41.555v6.621 M343.072,41.555v6.621 M319.923,41.555v6.621 M305.656,41.555v6.621"/>
	<polygon fill-rule="evenodd" clip-rule="evenodd" points="272.229,38.696 274.419,38.696 274.419,43.725 272.229,43.725 
		272.229,38.696 	"/>
	<polygon fill-rule="evenodd" clip-rule="evenodd" points="282.443,38.696 284.633,38.696 284.633,43.725 282.443,43.725 
		282.443,38.696 	"/>
	<polygon fill-rule="evenodd" clip-rule="evenodd" points="277.505,38.696 279.695,38.696 279.695,43.725 277.505,43.725 
		277.505,38.696 	"/>
	<polygon fill-rule="evenodd" clip-rule="evenodd" points="433.57,38.696 435.762,38.696 435.762,43.725 433.57,43.725 
		433.57,38.696 	"/>
	<polygon fill-rule="evenodd" clip-rule="evenodd" points="443.785,38.696 445.975,38.696 445.975,43.725 443.785,43.725 
		443.785,38.696 	"/>
	<polygon fill-rule="evenodd" clip-rule="evenodd" points="438.846,38.696 441.035,38.696 441.035,43.725 438.846,43.725 
		438.846,38.696 	"/>
	<path fill-rule="evenodd" clip-rule="evenodd" d="M87.942,69.229c2.213,0,4.018,1.804,4.018,4.018v7.116h-8.035v-7.116
		C83.925,71.033,85.729,69.229,87.942,69.229L87.942,69.229z"/>
	<path fill-rule="evenodd" clip-rule="evenodd" d="M87.942,86.829c2.213,0,4.018,1.804,4.018,4.017v7.117h-8.035v-7.117
		C83.925,88.632,85.729,86.829,87.942,86.829L87.942,86.829z"/>
	<path fill-rule="evenodd" clip-rule="evenodd" d="M466.943,69.229c2.213,0,4.018,1.804,4.018,4.018v7.116h-8.035v-7.116
		C462.926,71.033,464.73,69.229,466.943,69.229L466.943,69.229z"/>
	<path fill-rule="evenodd" clip-rule="evenodd" d="M466.943,86.852c2.213,0,4.018,1.805,4.018,4.018v7.116h-8.035V90.87
		C462.926,88.657,464.73,86.852,466.943,86.852L466.943,86.852z"/>
	<path fill-rule="evenodd" clip-rule="evenodd" d="M176.765,69.229c2.213,0,4.018,1.804,4.018,4.018v7.116h-8.036v-7.116
		C172.747,71.033,174.552,69.229,176.765,69.229L176.765,69.229z"/>
	<path fill-rule="evenodd" clip-rule="evenodd" d="M176.765,86.829c2.213,0,4.018,1.804,4.018,4.017v7.117h-8.036v-7.117
		C172.747,88.632,174.552,86.829,176.765,86.829L176.765,86.829z"/>
	<path fill-rule="evenodd" clip-rule="evenodd" d="M555.766,69.229c2.213,0,4.018,1.804,4.018,4.018v7.116h-8.035v-7.116
		C551.748,71.033,553.553,69.229,555.766,69.229L555.766,69.229z"/>
	<path fill-rule="evenodd" clip-rule="evenodd" d="M555.766,86.852c2.213,0,4.018,1.805,4.018,4.018v7.116h-8.035V90.87
		C551.748,88.657,553.553,86.852,555.766,86.852L555.766,86.852z"/>
	<path fill-rule="evenodd" clip-rule="evenodd" d="M65.468,68.463c0.925,0,2.542,0.799,2.542,3.012v8.122h-5.083v-8.122
		C62.926,69.262,64.543,68.463,65.468,68.463L65.468,68.463z"/>
	<path fill-rule="evenodd" clip-rule="evenodd" d="M652.332,68.463c0.924,0,2.541,0.799,2.541,3.012v8.122h-5.084v-8.122
		C649.789,69.262,651.406,68.463,652.332,68.463L652.332,68.463z"/>
	<path fill-rule="evenodd" clip-rule="evenodd" d="M670.887,68.463c0.926,0,2.543,0.799,2.543,3.012v8.122h-5.084v-8.122
		C668.346,69.262,669.963,68.463,670.887,68.463L670.887,68.463z"/>
	<path fill-rule="evenodd" clip-rule="evenodd" d="M689.443,68.463c0.926,0,2.541,0.799,2.541,3.012v8.122h-5.082v-8.122
		C686.902,69.262,688.52,68.463,689.443,68.463L689.443,68.463z"/>
	<path fill-rule="evenodd" clip-rule="evenodd" d="M652.332,86.852c0.924,0,2.541,0.798,2.541,3.011v8.123h-5.084v-8.123
		C649.789,87.65,651.406,86.852,652.332,86.852L652.332,86.852z"/>
	<path fill-rule="evenodd" clip-rule="evenodd" d="M670.887,86.852c0.926,0,2.543,0.798,2.543,3.011v8.123h-5.084v-8.123
		C668.346,87.65,669.963,86.852,670.887,86.852L670.887,86.852z"/>
	<path fill-rule="evenodd" clip-rule="evenodd" d="M689.443,86.852c0.926,0,2.541,0.798,2.541,3.011v8.123h-5.082v-8.123
		C686.902,87.65,688.52,86.852,689.443,86.852L689.443,86.852z"/>
	<path fill-rule="evenodd" clip-rule="evenodd" d="M47.355,68.463c0.925,0,2.542,0.799,2.542,3.012v8.122h-5.083v-8.122
		C44.813,69.262,46.431,68.463,47.355,68.463L47.355,68.463z"/>
	<path fill-rule="evenodd" clip-rule="evenodd" d="M28.38,68.463c0.925,0,2.542,0.799,2.542,3.012v8.122h-5.083v-8.122
		C25.838,69.262,27.455,68.463,28.38,68.463L28.38,68.463z"/>
	<path fill-rule="evenodd" clip-rule="evenodd" d="M65.468,86.829c0.925,0,2.542,0.798,2.542,3.011v8.123h-5.083v-8.123
		C62.926,87.626,64.543,86.829,65.468,86.829L65.468,86.829z"/>
	<path fill-rule="evenodd" clip-rule="evenodd" d="M47.355,86.829c0.925,0,2.542,0.798,2.542,3.011v8.123h-5.083v-8.123
		C44.813,87.626,46.431,86.829,47.355,86.829L47.355,86.829z"/>
	<path fill-rule="evenodd" clip-rule="evenodd" d="M28.38,86.829c0.925,0,2.542,0.798,2.542,3.011v8.123h-5.083v-8.123
		C25.838,87.626,27.455,86.829,28.38,86.829L28.38,86.829z"/>
	<path fill-rule="evenodd" clip-rule="evenodd" d="M102.746,69.229c2.213,0,4.018,1.804,4.018,4.018v7.116h-8.035v-7.116
		C98.729,71.033,100.533,69.229,102.746,69.229L102.746,69.229z"/>
	<path fill-rule="evenodd" clip-rule="evenodd" d="M102.746,86.829c2.213,0,4.018,1.804,4.018,4.017v7.117h-8.035v-7.117
		C98.729,88.632,100.533,86.829,102.746,86.829L102.746,86.829z"/>
	<path fill-rule="evenodd" clip-rule="evenodd" d="M481.746,69.229c2.215,0,4.02,1.804,4.02,4.018v7.116h-8.037v-7.116
		C477.729,71.033,479.535,69.229,481.746,69.229L481.746,69.229z"/>
	<path fill-rule="evenodd" clip-rule="evenodd" d="M481.746,86.852c2.215,0,4.02,1.805,4.02,4.018v7.116h-8.037V90.87
		C477.729,88.657,479.535,86.852,481.746,86.852L481.746,86.852z"/>
	<path fill-rule="evenodd" clip-rule="evenodd" d="M191.569,69.229c2.213,0,4.017,1.804,4.017,4.018v7.116h-8.035v-7.116
		C187.551,71.033,189.355,69.229,191.569,69.229L191.569,69.229z"/>
	<path fill-rule="evenodd" clip-rule="evenodd" d="M191.569,86.829c2.213,0,4.017,1.804,4.017,4.017v7.117h-8.035v-7.117
		C187.551,88.632,189.355,86.829,191.569,86.829L191.569,86.829z"/>
	<path fill-rule="evenodd" clip-rule="evenodd" d="M570.57,69.229c2.213,0,4.018,1.804,4.018,4.018v7.116h-8.035v-7.116
		C566.553,71.033,568.357,69.229,570.57,69.229L570.57,69.229z"/>
	<path fill-rule="evenodd" clip-rule="evenodd" d="M570.57,86.852c2.213,0,4.018,1.805,4.018,4.018v7.116h-8.035V90.87
		C566.553,88.657,568.357,86.852,570.57,86.852L570.57,86.852z"/>
	<path fill-rule="evenodd" clip-rule="evenodd" d="M117.55,69.229c2.213,0,4.018,1.804,4.018,4.018v7.116h-8.035v-7.116
		C113.532,71.033,115.337,69.229,117.55,69.229L117.55,69.229z"/>
	<path fill-rule="evenodd" clip-rule="evenodd" d="M117.55,86.829c2.213,0,4.018,1.804,4.018,4.017v7.117h-8.035v-7.117
		C113.532,88.632,115.337,86.829,117.55,86.829L117.55,86.829z"/>
	<path fill-rule="evenodd" clip-rule="evenodd" d="M496.551,69.229c2.213,0,4.018,1.804,4.018,4.018v7.116h-8.035v-7.116
		C492.533,71.033,494.338,69.229,496.551,69.229L496.551,69.229z"/>
	<path fill-rule="evenodd" clip-rule="evenodd" d="M496.551,86.852c2.213,0,4.018,1.805,4.018,4.018v7.116h-8.035V90.87
		C492.533,88.657,494.338,86.852,496.551,86.852L496.551,86.852z"/>
	<path fill-rule="evenodd" clip-rule="evenodd" d="M206.372,69.229c2.213,0,4.018,1.804,4.018,4.018v7.116h-8.035v-7.116
		C202.354,71.033,204.159,69.229,206.372,69.229L206.372,69.229z"/>
	<path fill-rule="evenodd" clip-rule="evenodd" d="M206.372,86.829c2.213,0,4.018,1.804,4.018,4.017v7.117h-8.035v-7.117
		C202.354,88.632,204.159,86.829,206.372,86.829L206.372,86.829z"/>
	<path fill-rule="evenodd" clip-rule="evenodd" d="M585.373,69.229c2.213,0,4.018,1.804,4.018,4.018v7.116h-8.035v-7.116
		C581.355,71.033,583.16,69.229,585.373,69.229L585.373,69.229z"/>
	<path fill-rule="evenodd" clip-rule="evenodd" d="M585.373,86.852c2.213,0,4.018,1.805,4.018,4.018v7.116h-8.035V90.87
		C581.355,88.657,583.16,86.852,585.373,86.852L585.373,86.852z"/>
	<path fill-rule="evenodd" clip-rule="evenodd" d="M132.354,69.229c2.213,0,4.018,1.804,4.018,4.018v7.116h-8.035v-7.116
		C128.336,71.033,130.141,69.229,132.354,69.229L132.354,69.229z"/>
	<path fill-rule="evenodd" clip-rule="evenodd" d="M132.354,86.829c2.213,0,4.018,1.804,4.018,4.017v7.117h-8.035v-7.117
		C128.336,88.632,130.141,86.829,132.354,86.829L132.354,86.829z"/>
	<path fill-rule="evenodd" clip-rule="evenodd" d="M511.355,69.229c2.213,0,4.018,1.804,4.018,4.018v7.116h-8.035v-7.116
		C507.338,71.033,509.141,69.229,511.355,69.229L511.355,69.229z"/>
	<path fill-rule="evenodd" clip-rule="evenodd" d="M511.355,86.852c2.213,0,4.018,1.805,4.018,4.018v7.116h-8.035V90.87
		C507.338,88.657,509.141,86.852,511.355,86.852L511.355,86.852z"/>
	<path fill-rule="evenodd" clip-rule="evenodd" d="M221.176,69.229c2.213,0,4.018,1.804,4.018,4.018v7.116h-8.036v-7.116
		C217.158,71.033,218.963,69.229,221.176,69.229L221.176,69.229z"/>
	<path fill-rule="evenodd" clip-rule="evenodd" d="M221.176,86.829c2.213,0,4.018,1.804,4.018,4.017v7.117h-8.036v-7.117
		C217.158,88.632,218.963,86.829,221.176,86.829L221.176,86.829z"/>
	<path fill-rule="evenodd" clip-rule="evenodd" d="M600.178,69.229c2.213,0,4.018,1.804,4.018,4.018v7.116h-8.035v-7.116
		C596.16,71.033,597.965,69.229,600.178,69.229L600.178,69.229z"/>
	<path fill-rule="evenodd" clip-rule="evenodd" d="M600.178,86.852c2.213,0,4.018,1.805,4.018,4.018v7.116h-8.035V90.87
		C596.16,88.657,597.965,86.852,600.178,86.852L600.178,86.852z"/>
	<path fill-rule="evenodd" clip-rule="evenodd" d="M147.157,69.229c2.213,0,4.018,1.804,4.018,4.018v7.116h-8.035v-7.116
		C143.14,71.033,144.944,69.229,147.157,69.229L147.157,69.229z"/>
	<path fill-rule="evenodd" clip-rule="evenodd" d="M147.157,86.829c2.213,0,4.018,1.804,4.018,4.017v7.117h-8.035v-7.117
		C143.14,88.632,144.944,86.829,147.157,86.829L147.157,86.829z"/>
	<path fill-rule="evenodd" clip-rule="evenodd" d="M526.158,69.229c2.213,0,4.018,1.804,4.018,4.018v7.116h-8.035v-7.116
		C522.141,71.033,523.945,69.229,526.158,69.229L526.158,69.229z"/>
	<path fill-rule="evenodd" clip-rule="evenodd" d="M526.158,86.852c2.213,0,4.018,1.805,4.018,4.018v7.116h-8.035V90.87
		C522.141,88.657,523.945,86.852,526.158,86.852L526.158,86.852z"/>
	<path fill-rule="evenodd" clip-rule="evenodd" d="M235.98,69.229c2.212,0,4.018,1.804,4.018,4.018v7.116h-8.036v-7.116
		C231.962,71.033,233.767,69.229,235.98,69.229L235.98,69.229z"/>
	<path fill-rule="evenodd" clip-rule="evenodd" d="M235.98,86.829c2.212,0,4.018,1.804,4.018,4.017v7.117h-8.036v-7.117
		C231.962,88.632,233.767,86.829,235.98,86.829L235.98,86.829z"/>
	<path fill-rule="evenodd" clip-rule="evenodd" d="M614.98,69.229c2.213,0,4.018,1.804,4.018,4.018v7.116h-8.035v-7.116
		C610.963,71.033,612.768,69.229,614.98,69.229L614.98,69.229z"/>
	<path fill-rule="evenodd" clip-rule="evenodd" d="M614.98,86.852c2.213,0,4.018,1.805,4.018,4.018v7.116h-8.035V90.87
		C610.963,88.657,612.768,86.852,614.98,86.852L614.98,86.852z"/>
	<path fill-rule="evenodd" clip-rule="evenodd" d="M249.895,69.229c2.213,0,4.018,1.804,4.018,4.018v7.116h-8.036v-7.116
		C245.877,71.033,247.683,69.229,249.895,69.229L249.895,69.229z"/>
	<path fill-rule="evenodd" clip-rule="evenodd" d="M249.895,86.829c2.213,0,4.018,1.804,4.018,4.017v7.117h-8.036v-7.117
		C245.877,88.632,247.683,86.829,249.895,86.829L249.895,86.829z"/>
	<path fill-rule="evenodd" clip-rule="evenodd" d="M628.896,69.229c2.213,0,4.018,1.804,4.018,4.018v7.116h-8.035v-7.116
		C624.879,71.033,626.684,69.229,628.896,69.229L628.896,69.229z"/>
	<path fill-rule="evenodd" clip-rule="evenodd" d="M628.896,86.852c2.213,0,4.018,1.805,4.018,4.018v7.116h-8.035V90.87
		C624.879,88.657,626.684,86.852,628.896,86.852L628.896,86.852z"/>
	<path fill-rule="evenodd" clip-rule="evenodd" d="M161.961,69.229c2.213,0,4.018,1.804,4.018,4.018v7.116h-8.035v-7.116
		C157.943,71.033,159.748,69.229,161.961,69.229L161.961,69.229z"/>
	<path fill-rule="evenodd" clip-rule="evenodd" d="M161.961,86.829c2.213,0,4.018,1.804,4.018,4.017v7.117h-8.035v-7.117
		C157.943,88.632,159.748,86.829,161.961,86.829L161.961,86.829z"/>
	<path fill-rule="evenodd" clip-rule="evenodd" d="M540.963,69.229c2.213,0,4.018,1.804,4.018,4.018v7.116h-8.035v-7.116
		C536.945,71.033,538.75,69.229,540.963,69.229L540.963,69.229z"/>
	<path fill-rule="evenodd" clip-rule="evenodd" d="M540.963,86.852c2.213,0,4.018,1.805,4.018,4.018v7.116h-8.035V90.87
		C536.945,88.657,538.75,86.852,540.963,86.852L540.963,86.852z"/>
	<path fill-rule="evenodd" clip-rule="evenodd" d="M87.942,109.379c2.213,0,3.238,1.659,3.238,4.38v6.531H84.64v-6.531
		C84.64,111.039,85.729,109.379,87.942,109.379L87.942,109.379z"/>
	<path fill-rule="evenodd" clip-rule="evenodd" d="M466.943,109.379c2.213,0,3.238,1.659,3.238,4.38v6.531h-6.541v-6.531
		C463.641,111.039,464.73,109.379,466.943,109.379L466.943,109.379z"/>
	<path fill-rule="evenodd" clip-rule="evenodd" d="M176.765,109.379c2.213,0,3.238,1.659,3.238,4.38v6.531h-6.541v-6.531
		C173.462,111.039,174.552,109.379,176.765,109.379L176.765,109.379z"/>
	<path fill-rule="evenodd" clip-rule="evenodd" d="M555.766,109.379c2.213,0,3.238,1.659,3.238,4.38v6.531h-6.541v-6.531
		C552.463,111.039,553.553,109.379,555.766,109.379L555.766,109.379z"/>
	<path fill-rule="evenodd" clip-rule="evenodd" d="M65.484,108.516c1.234,0,2.525,0.194,2.525,2.803v8.676h-4.8v-8.676
		C63.209,108.71,64.25,108.516,65.484,108.516L65.484,108.516z"/>
	<path fill-rule="evenodd" clip-rule="evenodd" d="M652.348,108.516c1.234,0,2.525,0.488,2.525,2.701v7.038h-4.801v-7.038
		C650.072,109.004,651.113,108.516,652.348,108.516L652.348,108.516z"/>
	<path fill-rule="evenodd" clip-rule="evenodd" d="M670.904,108.516c1.234,0,2.525,0.488,2.525,2.701v7.038h-4.801v-7.038
		C668.629,109.004,669.668,108.516,670.904,108.516L670.904,108.516z"/>
	<path fill-rule="evenodd" clip-rule="evenodd" d="M689.459,108.516c1.236,0,2.525,0.488,2.525,2.701v7.038h-4.799v-7.038
		C687.186,109.004,688.225,108.516,689.459,108.516L689.459,108.516z"/>
	<path fill-rule="evenodd" clip-rule="evenodd" d="M47.372,108.516c1.234,0,2.525,0.194,2.525,2.803v8.676h-4.8v-8.676
		C45.097,108.71,46.137,108.516,47.372,108.516L47.372,108.516z"/>
	<path fill-rule="evenodd" clip-rule="evenodd" d="M28.396,108.516c1.235,0,2.525,0.289,2.525,2.897v8.581h-4.8v-8.581
		C26.122,108.805,27.161,108.516,28.396,108.516L28.396,108.516z"/>
	<path fill-rule="evenodd" clip-rule="evenodd" d="M102.746,109.379c2.213,0,3.238,1.659,3.238,4.38v6.531h-6.541v-6.531
		C99.443,111.039,100.533,109.379,102.746,109.379L102.746,109.379z"/>
	<path fill-rule="evenodd" clip-rule="evenodd" d="M481.746,109.379c2.215,0,3.238,1.659,3.238,4.38v6.531h-6.541v-6.531
		C478.443,111.039,479.535,109.379,481.746,109.379L481.746,109.379z"/>
	<path fill-rule="evenodd" clip-rule="evenodd" d="M191.569,109.379c2.213,0,3.238,1.659,3.238,4.38v6.531h-6.541v-6.531
		C188.266,111.039,189.355,109.379,191.569,109.379L191.569,109.379z"/>
	<path fill-rule="evenodd" clip-rule="evenodd" d="M570.57,109.379c2.213,0,3.236,1.659,3.236,4.38v6.531h-6.541v-6.531
		C567.266,111.039,568.357,109.379,570.57,109.379L570.57,109.379z"/>
	<path fill-rule="evenodd" clip-rule="evenodd" d="M117.55,109.379c2.213,0,3.238,1.659,3.238,4.38v6.531h-6.541v-6.531
		C114.247,111.039,115.337,109.379,117.55,109.379L117.55,109.379z"/>
	<path fill-rule="evenodd" clip-rule="evenodd" d="M496.551,109.379c2.213,0,3.238,1.659,3.238,4.38v6.531h-6.541v-6.531
		C493.248,111.039,494.338,109.379,496.551,109.379L496.551,109.379z"/>
	<path fill-rule="evenodd" clip-rule="evenodd" d="M206.372,109.379c2.213,0,3.238,1.659,3.238,4.38v6.531h-6.541v-6.531
		C203.069,111.039,204.159,109.379,206.372,109.379L206.372,109.379z"/>
	<path fill-rule="evenodd" clip-rule="evenodd" d="M585.373,109.379c2.213,0,3.238,1.659,3.238,4.38v6.531h-6.541v-6.531
		C582.07,111.039,583.16,109.379,585.373,109.379L585.373,109.379z"/>
	<path fill-rule="evenodd" clip-rule="evenodd" d="M132.354,109.379c2.213,0,3.238,1.659,3.238,4.38v6.531h-6.542v-6.531
		C129.05,111.039,130.141,109.379,132.354,109.379L132.354,109.379z"/>
	<path fill-rule="evenodd" clip-rule="evenodd" d="M511.355,109.379c2.213,0,3.236,1.659,3.236,4.38v6.531h-6.541v-6.531
		C508.051,111.039,509.141,109.379,511.355,109.379L511.355,109.379z"/>
	<path fill-rule="evenodd" clip-rule="evenodd" d="M221.176,109.379c2.213,0,3.238,1.659,3.238,4.38v6.531h-6.541v-6.531
		C217.873,111.039,218.963,109.379,221.176,109.379L221.176,109.379z"/>
	<path fill-rule="evenodd" clip-rule="evenodd" d="M600.178,109.379c2.213,0,3.238,1.659,3.238,4.38v6.531h-6.543v-6.531
		C596.873,111.039,597.965,109.379,600.178,109.379L600.178,109.379z"/>
	<path fill-rule="evenodd" clip-rule="evenodd" d="M147.157,109.379c2.213,0,3.238,1.659,3.238,4.38v6.531h-6.541v-6.531
		C143.854,111.039,144.944,109.379,147.157,109.379L147.157,109.379z"/>
	<path fill-rule="evenodd" clip-rule="evenodd" d="M526.158,109.379c2.213,0,3.238,1.659,3.238,4.38v6.531h-6.541v-6.531
		C522.855,111.039,523.945,109.379,526.158,109.379L526.158,109.379z"/>
	<path fill-rule="evenodd" clip-rule="evenodd" d="M235.98,109.379c2.212,0,3.238,1.659,3.238,4.38v6.531h-6.541v-6.531
		C232.677,111.039,233.767,109.379,235.98,109.379L235.98,109.379z"/>
	<path fill-rule="evenodd" clip-rule="evenodd" d="M614.98,109.379c2.213,0,3.238,1.659,3.238,4.38v6.531h-6.541v-6.531
		C611.678,111.039,612.768,109.379,614.98,109.379L614.98,109.379z"/>
	<path fill-rule="evenodd" clip-rule="evenodd" d="M249.895,109.379c2.213,0,3.238,1.659,3.238,4.38v6.531h-6.541v-6.531
		C246.592,111.039,247.683,109.379,249.895,109.379L249.895,109.379z"/>
	<path fill-rule="evenodd" clip-rule="evenodd" d="M628.896,109.379c2.213,0,3.238,1.659,3.238,4.38v6.531h-6.541v-6.531
		C625.594,111.039,626.684,109.379,628.896,109.379L628.896,109.379z"/>
	<path fill-rule="evenodd" clip-rule="evenodd" d="M161.961,109.379c2.213,0,3.238,1.659,3.238,4.38v6.531h-6.541v-6.531
		C158.658,111.039,159.748,109.379,161.961,109.379L161.961,109.379z"/>
	<path fill-rule="evenodd" clip-rule="evenodd" d="M540.963,109.379c2.213,0,3.236,1.659,3.236,4.38v6.531h-6.541v-6.531
		C537.658,111.039,538.75,109.379,540.963,109.379L540.963,109.379z"/>
	
		<line fill="none" stroke="#000000" stroke-width="1.9351" stroke-miterlimit="2.6131" x1="78.051" y1="60.198" x2="261.833" y2="60.198"/>
	
		<line fill="none" stroke="#000000" stroke-width="1.9351" stroke-miterlimit="2.6131" x1="456.314" y1="60.23" x2="640.127" y2="60.23"/>
	
		<line fill="none" stroke="#000000" stroke-width="1.9351" stroke-linecap="round" stroke-linejoin="round" stroke-miterlimit="2.6131" x1="294.874" y1="48.163" x2="423.451" y2="48.163"/>
	
		<path fill-rule="evenodd" clip-rule="evenodd" fill="#FFFFFF" stroke="#000000" stroke-width="1.9361" stroke-miterlimit="2.6131" d="
		M22.332,56.284V44.249l-0.775-0.328l-0.033-3.974c0.001-1.229-0.508-3.265-2.18-3.265c-1.721,0-2.203,1.895-2.213,3.278v3.99
		l-0.791,0.235v12.099H22.332L22.332,56.284z"/>
	
		<path fill-rule="evenodd" clip-rule="evenodd" fill="#FFFFFF" stroke="#000000" stroke-width="1.9361" stroke-miterlimit="2.6131" d="
		M695.855,56.284V44.249l0.773-0.328l0.033-3.974c0-1.229,0.51-3.265,2.18-3.265c1.723,0,2.203,1.895,2.213,3.278v3.99l0.791,0.235
		v12.099H695.855L695.855,56.284z"/>
	
		<path fill-rule="evenodd" clip-rule="evenodd" fill="#FFFFFF" stroke="#000000" stroke-width="1.9361" stroke-miterlimit="2.6131" d="
		M40.774,56.284V44.249L40,43.92l-0.033-3.974c0-1.229-0.509-3.265-2.18-3.265c-1.721,0-2.203,1.895-2.213,3.278v3.99l-0.791,0.235
		v12.099H40.774L40.774,56.284z"/>
	
		<path fill-rule="evenodd" clip-rule="evenodd" fill="#FFFFFF" stroke="#000000" stroke-width="1.9361" stroke-miterlimit="2.6131" d="
		M677.412,56.284V44.249l0.775-0.328l0.033-3.974c-0.002-1.229,0.508-3.265,2.18-3.265c1.721,0,2.203,1.895,2.213,3.278v3.99
		l0.791,0.235v12.099H677.412L677.412,56.284z"/>
	
		<path fill-rule="evenodd" clip-rule="evenodd" fill="#FFFFFF" stroke="#000000" stroke-width="1.9361" stroke-miterlimit="2.6131" d="
		M59.26,56.284V44.249l-0.775-0.328l0.006-3.974c0.001-1.229-0.548-3.265-2.22-3.265c-1.721,0-2.203,1.895-2.213,3.278v3.99
		l-0.79,0.235v12.099H59.26L59.26,56.284z"/>
	
		<path fill-rule="evenodd" clip-rule="evenodd" fill="#FFFFFF" stroke="#000000" stroke-width="1.9361" stroke-miterlimit="2.6131" d="
		M658.926,56.284V44.249l0.775-0.328l-0.006-3.974c-0.002-1.229,0.547-3.265,2.219-3.265c1.721,0,2.203,1.895,2.213,3.278v3.99
		l0.791,0.235v12.099H658.926L658.926,56.284z"/>
	
		<path fill-rule="evenodd" clip-rule="evenodd" fill="#FFFFFF" stroke="#000000" stroke-width="1.9361" stroke-miterlimit="2.6131" d="
		M77.746,56.284V44.249l-0.775-0.328l0.003-3.974c0.001-1.229-0.545-3.265-2.217-3.265c-1.721,0-2.203,1.895-2.213,3.278v3.99
		l-0.79,0.235v12.099H77.746L77.746,56.284z"/>
	
		<path fill-rule="evenodd" clip-rule="evenodd" fill="#FFFFFF" stroke="#000000" stroke-width="1.9361" stroke-miterlimit="2.6131" d="
		M640.439,56.284V44.249l0.775-0.328l-0.004-3.974c0-1.229,0.547-3.265,2.217-3.265c1.721,0,2.203,1.895,2.213,3.278v3.99
		l0.791,0.235v12.099H640.439L640.439,56.284z"/>
	<polyline fill="none" stroke="#000000" stroke-width="1.9361" stroke-linejoin="round" stroke-miterlimit="2.6131" points="
		16.344,56.288 16.038,56.288 16.038,60.457 16.746,60.457 16.746,103.947 14.816,103.947 14.816,106.605 16.489,106.605 
		16.489,124.623 15.225,125.555 15.225,135.812 	"/>
	<polyline fill="none" stroke="#000000" stroke-width="1.9361" stroke-linejoin="round" stroke-miterlimit="2.6131" points="
		701.842,56.288 702.148,56.288 702.148,60.457 701.439,60.457 701.441,103.947 703.369,103.947 703.369,106.605 701.697,106.605 
		701.697,124.623 702.961,125.555 702.961,135.812 	"/>
	<polyline fill="none" stroke="#000000" stroke-width="1.9361" stroke-linejoin="round" stroke-miterlimit="2.6131" points="
		22.324,56.288 22.63,56.288 22.63,60.457 21.922,60.457 21.922,65.152 	"/>
	<polyline fill="none" stroke="#000000" stroke-width="1.9361" stroke-linejoin="round" stroke-miterlimit="2.6131" points="
		695.861,56.288 695.557,56.288 695.557,60.457 696.264,60.457 696.264,65.152 	"/>
	<polyline fill="none" stroke="#000000" stroke-width="1.9361" stroke-linejoin="round" stroke-miterlimit="2.6131" points="
		40.778,56.288 41.084,56.288 41.084,60.457 40.376,60.457 40.376,65.152 	"/>
	<polyline fill="none" stroke="#000000" stroke-width="1.9361" stroke-linejoin="round" stroke-miterlimit="2.6131" points="
		677.408,56.288 677.104,56.288 677.104,60.457 677.811,60.457 677.811,65.152 	"/>
	<polyline fill="none" stroke="#000000" stroke-width="1.9361" stroke-linejoin="round" stroke-miterlimit="2.6131" points="
		59.266,56.288 59.572,56.288 59.572,60.457 58.864,60.457 58.864,65.152 	"/>
	<path fill="none" stroke="#000000" stroke-width="1.9361" stroke-linejoin="round" stroke-miterlimit="2.6131" d="M658.92,56.288
		h-0.305v4.169h0.707v4.695 M34.83,56.288h-0.306v4.169h0.708v4.695"/>
	<polyline fill="none" stroke="#000000" stroke-width="1.9361" stroke-linejoin="round" stroke-miterlimit="2.6131" points="
		683.355,56.288 683.662,56.288 683.662,60.457 682.955,60.457 682.955,65.152 	"/>
	<polyline fill="none" stroke="#000000" stroke-width="1.9361" stroke-linejoin="round" stroke-miterlimit="2.6131" points="
		53.284,56.288 52.978,56.288 52.978,60.457 53.686,60.457 53.686,65.152 	"/>
	<polyline fill="none" stroke="#000000" stroke-width="1.9361" stroke-linejoin="round" stroke-miterlimit="2.6131" points="
		664.902,56.288 665.209,56.288 665.209,60.457 664.5,60.457 664.5,65.152 	"/>
	<polyline fill="none" stroke="#000000" stroke-width="1.9361" stroke-linejoin="round" stroke-miterlimit="2.6131" points="
		71.764,56.288 71.458,56.288 71.458,60.457 72.166,60.457 72.166,65.152 	"/>
	<polyline fill="none" stroke="#000000" stroke-width="1.9361" stroke-linejoin="round" stroke-miterlimit="2.6131" points="
		646.424,56.288 646.729,56.288 646.729,60.457 646.021,60.457 646.021,65.152 	"/>
	<polyline fill="none" stroke="#000000" stroke-width="1.9361" stroke-linejoin="round" stroke-miterlimit="2.6131" points="
		77.74,56.288 78.046,56.288 78.046,60.457 77.338,60.457 77.339,103.947 79.268,103.947 79.268,106.605 77.595,106.605 
		77.595,124.623 78.859,125.555 78.859,135.812 	"/>
	<polyline fill="none" stroke="#000000" stroke-width="1.9361" stroke-linejoin="round" stroke-miterlimit="2.6131" points="
		640.447,56.288 640.141,56.288 640.141,60.457 640.848,60.457 640.848,103.947 638.918,103.947 638.918,106.605 640.592,106.605 
		640.592,124.623 639.328,125.555 639.328,135.812 	"/>
	<path fill="none" stroke="#000000" stroke-width="1.9361" stroke-miterlimit="2.6131" d="M671.129,46.947v9.344 M689.617,46.947
		v9.344 M652.781,46.947v9.344"/>
	<path fill="none" stroke="#000000" stroke-width="1.9361" stroke-linejoin="round" stroke-miterlimit="2.6131" d="M268.68,48.152
		V36.017c-0.119-2.321-0.553-4.642-3.154-6.963c-2.335,2.321-3.096,4.642-3.088,6.963v12.135l-3.853,0.862v3.663h3.308v45.61h-1.326
		v8.221h0.861v17.374l-1.189,1.592v10.345 M429.93,48.161v-12.21c-0.119-2.321-0.553-4.642-3.152-6.963
		c-2.336,2.321-3.096,4.642-3.088,6.963v12.21l-3.854,0.787v3.775h3.307v45.498h-1.326v8.221h0.861v17.374l-1.189,1.592v10.6"/>
	<path fill="none" stroke="#000000" stroke-width="1.9361" stroke-linejoin="round" stroke-miterlimit="2.6131" d="M288.251,48.152
		V36.017c0.119-2.321,0.553-4.642,3.154-6.963c2.335,2.321,3.096,4.642,3.088,6.963v12.135l3.853,0.862v3.68h-3.308v45.593h1.326
		v8.221h-0.861v17.374l1.189,1.592v10.345 M449.502,48.086V35.951c0.119-2.321,0.553-4.642,3.154-6.963
		c2.334,2.321,3.096,4.642,3.088,6.963l-0.014,12.218l3.869,0.863l-0.004,3.596h-3.307v45.593h1.326v8.221h-0.861v17.374
		l1.189,1.592v10.6"/>
	<polygon fill-rule="evenodd" clip-rule="evenodd" points="298.06,99.628 298.06,103.951 304.402,103.951 304.402,99.628 
		303.458,97.267 303.255,66.571 299.275,66.571 299.072,97.334 298.06,99.628 	"/>
	<polygon fill-rule="evenodd" clip-rule="evenodd" points="321.201,99.628 321.201,103.951 327.542,103.951 327.542,99.628 
		326.598,97.267 326.396,66.571 322.415,66.571 322.212,97.334 321.201,99.628 	"/>
	<polygon fill-rule="evenodd" clip-rule="evenodd" points="344.341,99.628 344.341,103.951 350.683,103.951 350.683,99.628 
		349.738,97.267 349.536,66.571 345.555,66.571 345.353,97.334 344.341,99.628 	"/>
	<polygon fill-rule="evenodd" clip-rule="evenodd" points="367.549,99.628 367.549,103.951 373.891,103.951 373.891,99.628 
		372.945,97.267 372.744,66.571 368.764,66.571 368.561,97.334 367.549,99.628 	"/>
	<polygon fill-rule="evenodd" clip-rule="evenodd" points="390.689,99.628 390.689,103.951 397.031,103.951 397.031,99.628 
		396.086,97.267 395.885,66.571 391.904,66.571 391.701,97.334 390.689,99.628 	"/>
	<polygon fill-rule="evenodd" clip-rule="evenodd" points="413.83,99.628 413.83,103.951 420.172,103.951 420.172,99.628 
		419.227,97.267 419.023,66.571 415.043,66.571 414.842,97.334 413.83,99.628 	"/>
	<path fill-rule="evenodd" clip-rule="evenodd" d="M74.166,36.763h-5.088L56.544,19.687v-5.525l-0.362-1.326l-0.985-0.958
		l-0.104-0.099l-0.173-0.117l-0.172,0.117l-0.104,0.099l-0.917,0.848l-0.417,1.176H40.771l-0.418-1.176l-0.916-0.848l-0.104-0.099
		l-0.173-0.117l-0.172,0.117l-0.104,0.099l-0.985,0.958l-0.361,1.326v5.525h-0.058L21.538,41.604l0.019,2.316l0.775,0.328l0,2.713
		l12.452,0.002l-0.001-2.779l0.791-0.235v-3.99c0.068-3.061,1.686-3.279,2.213-3.278c0.5-0.028,2.077,0.294,2.18,3.265l0.033,3.975
		l0.775,0.328l0.002,2.717l12.488,0.002l0.005-2.783l0.79-0.235v-3.991c0.071-2.982,1.638-3.313,2.213-3.278
		c0.492-0.063,2.131,0.357,2.22,3.265l-0.006,3.974l0.775,0.329l-0.003,2.721l12.5,0.001l-0.002-2.786l0.791-0.235l0-1.955h0v-2.036
		C72.548,39.07,72.773,37.224,74.166,36.763L74.166,36.763z"/>
	<path fill-rule="evenodd" clip-rule="evenodd" d="M644.02,36.763h5.088l12.533-17.076v-5.525l0.363-1.326l0.984-0.958l0.104-0.099
		l0.174-0.117l0.172,0.117l0.104,0.099l0.916,0.848l0.418,1.176h12.541l0.418-1.176l0.916-0.848l0.104-0.099l0.172-0.117
		l0.174,0.117l0.104,0.099l0.984,0.958l0.361,1.326v5.525h0.059l15.941,21.918l-0.02,2.316l-0.775,0.328v2.713l-12.451,0.002v-2.779
		l-0.789-0.235v-3.99c-0.068-3.061-1.686-3.279-2.213-3.278c-0.502-0.028-2.078,0.294-2.182,3.265l-0.031,3.975l-0.775,0.328
		l-0.002,2.717l-12.488,0.002l-0.006-2.783l-0.789-0.235v-3.991c-0.072-2.982-1.639-3.313-2.213-3.278
		c-0.492-0.063-2.131,0.357-2.221,3.265l0.008,3.974l-0.775,0.329l0.002,2.721l-12.498,0.001l0.002-2.786l-0.791-0.235v-1.955l0,0
		v-2.036C645.639,39.07,645.412,37.224,644.02,36.763L644.02,36.763z"/>
	<path fill="none" stroke="#000000" stroke-width="1.9157" stroke-miterlimit="2.6131" d="M395.711,115.226l-3.164-0.003
		c-0.568-5.195-5.029-9.21-10.301-9.21c-5.273,0-9.734,4.015-10.303,9.21h-2.566c-0.568-5.195-5.029-9.21-10.301-9.21
		c-5.273,0-9.734,4.015-10.302,9.211l-2.567-0.005c-0.568-5.191-5.029-9.206-10.301-9.206c-5.272,0-9.733,4.056-10.301,9.242
		l-3.252-0.004"/>
	<path fill="none" stroke="#000000" stroke-width="1.4287" stroke-miterlimit="2.6131" d="M421.828,135.796v-31.763
		 M457.617,135.754v-31.763"/>
	
		<line fill="none" stroke="#000000" stroke-width="2.2677" stroke-miterlimit="2.6131" x1="421.82" y1="103.92" x2="421.82" y2="59.688"/>
	
		<line fill="none" stroke="#000000" stroke-width="2.2678" stroke-miterlimit="2.6131" x1="457.613" y1="103.945" x2="457.613" y2="52.574"/>
	<path fill="none" stroke="#000000" stroke-width="1.4287" stroke-miterlimit="2.6131" d="M296.337,135.796v-31.763
		 M260.549,135.754v-31.763"/>
	
		<line fill="none" stroke="#000000" stroke-width="2.2677" stroke-miterlimit="2.6131" x1="296.346" y1="103.92" x2="296.346" y2="59.688"/>
	
		<line fill="none" stroke="#000000" stroke-width="2.2678" stroke-miterlimit="2.6131" x1="260.552" y1="103.945" x2="260.552" y2="52.574"/>
	
		<path fill="none" stroke="#000000" stroke-width="1.936" stroke-linecap="round" stroke-linejoin="round" stroke-miterlimit="2.6131" d="
		M508.795,51.837v8.39 M523.271,51.837v8.39"/>
	
		<line fill="none" stroke="#000000" stroke-width="1.936" stroke-linecap="round" stroke-linejoin="round" stroke-miterlimit="2.6131" x1="538.021" y1="51.863" x2="538.021" y2="60.227"/>
	
		<path fill="none" stroke="#000000" stroke-width="1.936" stroke-linecap="round" stroke-linejoin="round" stroke-miterlimit="2.6131" d="
		M553.215,51.837v8.39 M567.805,51.837v8.39 M582.842,51.837v8.39 M597.799,51.837v8.39 M612.262,51.837v8.39 M626.818,51.837v8.39
		 M493.941,51.837v8.39 M479.012,51.837v8.39 M464.93,51.837v8.39 M515.42,51.837v8.39 M529.898,51.837v8.39"/>
	
		<line fill="none" stroke="#000000" stroke-width="1.936" stroke-linecap="round" stroke-linejoin="round" stroke-miterlimit="2.6131" x1="544.648" y1="51.863" x2="544.648" y2="60.227"/>
	
		<path fill="none" stroke="#000000" stroke-width="1.936" stroke-linecap="round" stroke-linejoin="round" stroke-miterlimit="2.6131" d="
		M559.84,51.837v8.39 M574.43,51.837v8.39 M589.467,51.837v8.39 M604.424,51.837v8.39 M618.887,51.837v8.39 M633.443,51.837v8.39
		 M500.568,51.837v8.39 M485.637,51.837v8.39 M471.555,51.837v8.39"/>
	
		<line fill="none" stroke="#000000" stroke-width="1.936" stroke-linecap="round" stroke-linejoin="round" stroke-miterlimit="2.6131" x1="128.508" y1="51.837" x2="128.508" y2="60.219"/>
	
		<path fill="none" stroke="#000000" stroke-width="1.936" stroke-linecap="round" stroke-linejoin="round" stroke-miterlimit="2.6131" d="
		M143.919,51.837v8.382 M158.466,51.837v8.382"/>
	
		<path fill="none" stroke="#000000" stroke-width="1.936" stroke-linecap="round" stroke-linejoin="round" stroke-miterlimit="2.6131" d="
		M173.699,51.837v8.382 M188.29,51.837v8.382"/>
	
		<path fill="none" stroke="#000000" stroke-width="1.936" stroke-linecap="round" stroke-linejoin="round" stroke-miterlimit="2.6131" d="
		M202.88,51.881v8.338 M217.471,51.881v8.338"/>
	
		<path fill="none" stroke="#000000" stroke-width="1.936" stroke-linecap="round" stroke-linejoin="round" stroke-miterlimit="2.6131" d="
		M232.543,51.837v8.382 M246.653,51.837v8.382"/>
	
		<line fill="none" stroke="#000000" stroke-width="1.936" stroke-linecap="round" stroke-linejoin="round" stroke-miterlimit="2.6131" x1="113.818" y1="51.837" x2="113.818" y2="60.219"/>
	
		<path fill="none" stroke="#000000" stroke-width="1.936" stroke-linecap="round" stroke-linejoin="round" stroke-miterlimit="2.6131" d="
		M99.415,51.837v8.382 M84.724,51.837v8.382"/>
	
		<path fill="none" stroke="#000000" stroke-width="1.936" stroke-linecap="round" stroke-linejoin="round" stroke-miterlimit="2.6131" d="
		M135.134,51.837v8.382 M150.545,51.837v8.382"/>
	
		<path fill="none" stroke="#000000" stroke-width="1.936" stroke-linecap="round" stroke-linejoin="round" stroke-miterlimit="2.6131" d="
		M165.092,51.837v8.382 M180.324,51.837v8.382"/>
	
		<path fill="none" stroke="#000000" stroke-width="1.936" stroke-linecap="round" stroke-linejoin="round" stroke-miterlimit="2.6131" d="
		M194.915,51.881v8.338 M209.506,51.881v8.338"/>
	
		<path fill="none" stroke="#000000" stroke-width="1.936" stroke-linecap="round" stroke-linejoin="round" stroke-miterlimit="2.6131" d="
		M224.097,51.837v8.382 M239.168,51.837v8.382"/>
	
		<line fill="none" stroke="#000000" stroke-width="1.936" stroke-linecap="round" stroke-linejoin="round" stroke-miterlimit="2.6131" x1="253.278" y1="51.837" x2="253.278" y2="60.198"/>
	
		<line fill="none" stroke="#000000" stroke-width="1.936" stroke-linecap="round" stroke-linejoin="round" stroke-miterlimit="2.6131" x1="120.443" y1="51.837" x2="120.443" y2="60.219"/>
	
		<line fill="none" stroke="#000000" stroke-width="1.936" stroke-linecap="round" stroke-linejoin="round" stroke-miterlimit="2.6131" x1="106.04" y1="51.881" x2="106.04" y2="60.219"/>
	
		<line fill="none" stroke="#000000" stroke-width="1.936" stroke-linecap="round" stroke-linejoin="round" stroke-miterlimit="2.6131" x1="91.349" y1="51.837" x2="91.349" y2="60.219"/>
	<path fill-rule="evenodd" clip-rule="evenodd" d="M35.84,179.87c1.241-1.121,1.865-2.636,1.865-4.553v-14.693
		c0-1.534,0.108-2.998,0.318-4.405c-0.452,1.617-0.91,3.119-1.381,4.514l-5.915,17.272c-0.102,0.286-0.153,0.63-0.153,1.024
		c0,0.414,0.025,0.694,0.077,0.841h-4.285c0.044-0.223,0.07-0.503,0.07-0.841c0-0.395-0.051-0.738-0.146-1.024l-5.953-17.272
		c-0.509-1.477-0.968-2.985-1.375-4.514c0.274,1.171,0.407,2.636,0.407,4.405v14.693c0,1.904,0.63,3.419,1.885,4.553h-6.92
		c1.242-1.121,1.866-2.636,1.866-4.553v-17.456c0-1.878-0.624-3.374-1.866-4.495h7.538c-0.191,0.274-0.28,0.541-0.28,0.803
		c0,0.102,0.006,0.19,0.025,0.261l5.793,16.801c0.478,1.395,0.878,3.037,1.216,4.928c0.375-2.037,0.776-3.68,1.203-4.921
		l5.71-16.808c0-0.013,0.006-0.032,0.019-0.058c0.039-0.108,0.058-0.203,0.058-0.279c0-0.039-0.077-0.28-0.223-0.727h7.589
		c-1.216,1.095-1.827,2.591-1.827,4.495v17.456c0,1.942,0.611,3.457,1.827,4.553H35.84L35.84,179.87z"/>
	<path fill-rule="evenodd" clip-rule="evenodd" d="M77.359,157.861c0-1.878-0.624-3.374-1.865-4.495h7.257
		c-1.241,1.121-1.865,2.617-1.865,4.495v12.835c0,2.323,0.35,3.966,1.044,4.921c0.821,1.133,2.33,1.7,4.526,1.7
		c2.216,0,3.725-0.567,4.533-1.7c0.668-0.942,1.006-2.585,1.006-4.921v-12.835c0-1.865-0.624-3.361-1.878-4.495h6.997
		c-1.222,1.095-1.833,2.591-1.833,4.495v12.573c0,3.394-0.433,5.698-1.305,6.921c-1.458,2.037-4.017,3.056-7.685,3.056
		c-3.679,0-6.22-1.019-7.626-3.056c-0.872-1.261-1.305-3.565-1.305-6.921V157.861L77.359,157.861z M87.864,150.679l3.247-5.29
		c0.579-0.949,1.197-1.427,1.846-1.427c0.878,0,1.324,0.459,1.324,1.369c0,0.541-0.395,1.146-1.178,1.821l-4.119,3.526H87.864
		L87.864,150.679z M83.293,150.679l2.483-5.112c0.522-1.069,1.114-1.604,1.789-1.604c0.351,0,0.656,0.141,0.93,0.421
		c0.274,0.279,0.414,0.592,0.414,0.942c0,0.458-0.337,1.037-1.005,1.731l-3.47,3.622H83.293L83.293,150.679z"/>
	<path fill-rule="evenodd" clip-rule="evenodd" d="M145.897,153.366c0.873,0,1.738-0.306,2.598-0.917v8.697
		c-0.847-1.955-2.126-3.323-3.845-4.106c-1.388-0.644-3.266-0.968-5.628-0.968c-1.292,0-2.228,0.146-2.801,0.445
		c-0.833,0.439-1.248,1.223-1.248,2.35v5.653h4.737c2.139,0,3.794-0.789,4.959-2.368v7.512c-1.165-1.572-2.82-2.361-4.959-2.361
		h-4.737v6.844c0,1.241,0.452,2.082,1.362,2.534c0.611,0.299,1.63,0.445,3.056,0.445c2.61,0,4.597-0.331,5.952-0.986
		c1.63-0.783,2.948-2.254,3.954-4.399v9.008c-0.808-0.585-1.744-0.878-2.801-0.878H129.58c1.242-1.121,1.866-2.636,1.866-4.553
		v-17.456c0-1.878-0.624-3.374-1.866-4.495H145.897L145.897,153.366z"/>
	<path fill-rule="evenodd" clip-rule="evenodd" d="M202.301,180.748c-0.72-0.923-1.585-1.381-2.591-1.381
		c-0.726,0-1.802,0.172-3.247,0.521c-1.445,0.351-2.534,0.522-3.285,0.522c-7.36,0-11.04-4.38-11.04-13.146
		c0-4.183,0.802-7.506,2.407-9.982c1.929-2.974,4.87-4.457,8.824-4.457c0.643,0,1.604,0.14,2.871,0.42
		c1.267,0.28,2.215,0.421,2.852,0.421c0.771,0,1.547-0.344,2.33-1.025v10.199c-1.14-2.216-2.209-3.813-3.208-4.794
		c-1.439-1.42-3.158-2.126-5.144-2.126c-2.61,0-4.545,1.247-5.8,3.749c-0.961,1.917-1.439,4.323-1.439,7.22
		c0,2.808,0.478,5.15,1.439,7.016c1.229,2.4,3.12,3.598,5.666,3.598c1.554,0,2.872-0.363,3.954-1.083
		c1.241-0.834,1.866-1.986,1.866-3.47v-2.444c0-1.91-0.752-3.425-2.254-4.533h6.825c-0.681,0.885-1.025,2.394-1.025,4.533V180.748
		L202.301,180.748z"/>
	<path fill-rule="evenodd" clip-rule="evenodd" d="M249.722,157.485c0.516-1.006,0.771-1.795,0.771-2.368
		c0-0.548-0.299-1.127-0.897-1.751h6.805c-1.082,1.083-1.979,2.299-2.699,3.654l-7.143,13.446v4.851
		c0,1.942,0.611,3.457,1.828,4.553h-7.258c1.241-1.121,1.865-2.636,1.865-4.553v-4.66l-7.182-13.637
		c-0.732-1.394-1.623-2.609-2.667-3.654h7.258c-0.56,0.586-0.84,1.165-0.84,1.751c0,0.599,0.242,1.388,0.726,2.368l4.66,9.436
		L249.722,157.485L249.722,157.485z"/>
	<path fill-rule="evenodd" clip-rule="evenodd" d="M302.809,153.366c0.872,0,1.738-0.306,2.598-0.917v8.697
		c-0.847-1.955-2.126-3.323-3.846-4.106c-1.388-0.644-3.266-0.968-5.627-0.968c-1.292,0-2.229,0.146-2.801,0.445
		c-0.834,0.439-1.248,1.223-1.248,2.35v5.653h4.737c2.139,0,3.794-0.789,4.959-2.368v7.512c-1.165-1.572-2.821-2.361-4.959-2.361
		h-4.737v6.844c0,1.241,0.452,2.082,1.362,2.534c0.611,0.299,1.63,0.445,3.056,0.445c2.61,0,4.597-0.331,5.952-0.986
		c1.63-0.783,2.948-2.254,3.954-4.399v9.008c-0.809-0.585-1.745-0.878-2.801-0.878h-16.916c1.242-1.121,1.866-2.636,1.866-4.553
		v-17.456c0-1.878-0.624-3.374-1.866-4.495H302.809L302.809,153.366z"/>
	<path fill-rule="evenodd" clip-rule="evenodd" d="M350.025,175.317c0,1.942,0.611,3.457,1.827,4.553h-7.219
		c1.216-1.096,1.827-2.61,1.827-4.553v-16.839c0-1.655-0.7-2.482-2.107-2.482c-2.846,0-4.87,2.024-6.061,6.079v-9.626
		c0.681,0.611,1.343,0.917,1.98,0.917h15.929c0.668,0,1.331-0.306,1.993-0.917v9.626c-1.159-4.055-3.17-6.079-6.042-6.079
		c-1.419,0-2.126,0.827-2.126,2.482V175.317L350.025,175.317z"/>
	<path fill-rule="evenodd" clip-rule="evenodd" d="M406.283,153.366c0.871,0,1.738-0.306,2.598-0.917v8.697
		c-0.848-1.955-2.127-3.323-3.846-4.106c-1.389-0.644-3.266-0.968-5.629-0.968c-1.291,0-2.227,0.146-2.801,0.445
		c-0.834,0.439-1.248,1.223-1.248,2.35v5.653h4.738c2.139,0,3.793-0.789,4.959-2.368v7.512c-1.166-1.572-2.82-2.361-4.959-2.361
		h-4.738v6.844c0,1.241,0.453,2.082,1.363,2.534c0.611,0.299,1.629,0.445,3.057,0.445c2.609,0,4.596-0.331,5.951-0.986
		c1.631-0.783,2.947-2.254,3.953-4.399v9.008c-0.807-0.585-1.744-0.878-2.801-0.878h-16.916c1.242-1.121,1.867-2.636,1.867-4.553
		v-17.456c0-1.878-0.625-3.374-1.867-4.495H406.283L406.283,153.366z"/>
	<path fill-rule="evenodd" clip-rule="evenodd" d="M464.252,179.87c1.242-1.121,1.865-2.636,1.865-4.553v-14.693
		c0-1.534,0.109-2.998,0.318-4.405c-0.451,1.617-0.91,3.119-1.381,4.514l-5.914,17.272c-0.102,0.286-0.152,0.63-0.152,1.024
		c0,0.414,0.025,0.694,0.076,0.841h-4.285c0.045-0.223,0.07-0.503,0.07-0.841c0-0.395-0.051-0.738-0.146-1.024l-5.953-17.272
		c-0.508-1.477-0.967-2.985-1.375-4.514c0.273,1.171,0.408,2.636,0.408,4.405v14.693c0,1.904,0.629,3.419,1.885,4.553h-6.922
		c1.242-1.121,1.867-2.636,1.867-4.553v-17.456c0-1.878-0.625-3.374-1.867-4.495h7.539c-0.191,0.274-0.281,0.541-0.281,0.803
		c0,0.102,0.008,0.19,0.025,0.261l5.795,16.801c0.477,1.395,0.877,3.037,1.215,4.928c0.377-2.037,0.777-3.68,1.203-4.921
		l5.711-16.808c0-0.013,0.006-0.032,0.02-0.058c0.037-0.108,0.057-0.203,0.057-0.279c0-0.039-0.076-0.28-0.223-0.727h7.59
		c-1.217,1.095-1.828,2.591-1.828,4.495v17.456c0,1.942,0.611,3.457,1.828,4.553H464.252L464.252,179.87z"/>
	<path fill-rule="evenodd" clip-rule="evenodd" d="M539.127,161.108h-2.406c-0.795,0-1.445,0.203-1.955,0.61v-3.896
		c0.721,0.337,1.389,0.503,1.994,0.503c2.164,0,3.246-1.21,3.246-3.636c0-0.675-0.121-1.292-0.369-1.865h3.355
		c-0.262,0.809-0.395,1.789-0.395,2.947v19.545c0,1.93,0.617,3.444,1.852,4.553h-7.148c1.215-1.096,1.826-2.61,1.826-4.553V161.108
		L539.127,161.108z"/>
	<path fill-rule="evenodd" clip-rule="evenodd" d="M586.408,179.87c1.725-1.693,3.152-4.113,4.285-7.258l4.818-13.369
		c0.223-0.624,0.332-1.134,0.332-1.528c0-1.318-1.07-1.98-3.209-1.98c-4.361,0-7.621,2.069-9.773,6.214v-9.46
		c0.898,0.585,1.84,0.878,2.834,0.878h16.883c-1.367,1.395-2.463,3.228-3.285,5.501l-5.537,15.312
		c-0.408,1.133-0.619,2.075-0.619,2.82c0,1.019,0.453,1.973,1.344,2.871H586.408L586.408,179.87z"/>
	<path fill-rule="evenodd" clip-rule="evenodd" d="M648.758,165.506c2.973,1.223,4.457,3.471,4.457,6.755
		c0,2.795-0.994,4.902-2.986,6.322c-1.738,1.216-4.063,1.827-6.971,1.827c-2.91,0-5.234-0.618-6.959-1.847
		c-1.992-1.406-2.986-3.508-2.986-6.303c0-3.284,1.479-5.532,4.438-6.755c-2.26-1.044-3.393-2.902-3.393-5.576
		c0-2.438,0.91-4.278,2.725-5.52c1.566-1.058,3.623-1.586,6.176-1.586c2.559,0,4.621,0.528,6.188,1.586
		c1.828,1.229,2.744,3.068,2.744,5.52C652.189,162.59,651.043,164.45,648.758,165.506L648.758,165.506z M643.258,155.62
		c-1.547,0-2.789,0.331-3.73,0.986c-1.082,0.758-1.625,1.879-1.625,3.362c0,1.502,0.535,2.642,1.605,3.412
		c0.941,0.682,2.197,1.024,3.75,1.024c1.566,0,2.82-0.343,3.762-1.024c1.082-0.771,1.623-1.91,1.623-3.412
		c0-1.483-0.547-2.604-1.643-3.362C646.059,155.951,644.811,155.62,643.258,155.62L643.258,155.62z M643.258,167.111
		c-1.879,0-3.375,0.395-4.477,1.178c-1.291,0.904-1.941,2.261-1.941,4.068c0,1.802,0.643,3.158,1.924,4.062
		c1.113,0.796,2.615,1.197,4.494,1.197c1.871,0,3.373-0.401,4.488-1.197c1.279-0.903,1.922-2.26,1.922-4.062
		c0-1.795-0.648-3.145-1.941-4.049C646.613,167.512,645.117,167.111,643.258,167.111L643.258,167.111z"/>
	<path fill-rule="evenodd" clip-rule="evenodd" d="M685.273,180.487c0-0.051-0.006-0.096-0.02-0.134
		c-0.039-0.617-0.057-1.082-0.057-1.395c0-4.418,1.832-8.021,5.5-10.822c1.178-0.828,3.26-2.388,6.227-4.66
		c1.604-1.293,2.406-2.643,2.406-4.049c0-1.217-0.408-2.152-1.229-2.795c-0.746-0.599-1.744-0.898-2.986-0.898
		c-3.654,0-6.678,2.261-9.078,6.787v-9.881c0.758,0.707,1.648,1.063,2.668,1.063c0.744,0,1.877-0.153,3.398-0.459
		c1.529-0.305,2.674-0.458,3.445-0.458c2.164,0,3.902,0.548,5.221,1.643c1.406,1.178,2.107,2.833,2.107,4.959
		c0,1.433-0.383,2.77-1.141,4.012c-0.234,0.4-0.854,0.999-1.865,1.808c-0.809,0.649-2.006,1.617-3.598,2.909l-0.107,0.096
		c-1.082,0.859-2.865,2.312-5.336,4.367c-0.91,1.006-1.361,1.93-1.361,2.776c0,0.936,0.58,1.521,1.732,1.775
		c0.465,0.096,1.4,0.146,2.82,0.146c3.004,0,5.117-0.534,6.34-1.604c1.045-0.924,2.164-2.827,3.355-5.73v10.804
		c-0.732-0.585-1.51-0.878-2.33-0.878h-14.064C686.514,179.87,685.834,180.073,685.273,180.487L685.273,180.487z"/>
</g>
</svg>
